#!OML:ASF H:\Dans Jumps\Project 1\Capture day 1\Session 1\subject.ASF
:FULLY-SPECIFIED
:DEGREES
519
root 0.783837 17.7419 6.47668 5.16336 0.877922 -2.03205
lowerback -2.17597 -0.29963 -0.136036
upperback 1.59364 -0.440447 1.71274
thorax 2.87128 -0.240604 1.81619
lowerneck -12.8882 -1.07969 -2.49394
upperneck 19.9031 -1.20061 1.16974
head 8.3298 -0.63626 0.676215
rclavicle -7.47927e-015 9.14409e-015
rhumerus -23.1671 -16.6176 -83.1865
rradius 23.4573
rwrist 34.5467
rhand -20.2414 -27.0216
rfingers 7.12502
rthumb 6.10673 -56.9136
lclavicle -7.47927e-015 9.14409e-015
lhumerus -20.4242 9.44939 87.7307
lradius 12.6377
lwrist -7.04311
lhand -25.857 -6.20825
lfingers 7.12502
lthumb 0.683901 23.7704
rfemur -12.9955 -1.65336 20.2424
rtibia 19.3766
rfoot -10.701 -0.211065
rtoes 17.7925
lfemur -11.5939 6.59664 -17.38
ltibia 18.2822
lfoot -9.58347 2.73628
ltoes -2.89065
520
root 0.784972 17.7417 6.4765 5.16001 0.842301 -2.02448
lowerback -2.18388 -0.301056 -0.143395
upperback 1.5864 -0.442002 1.71042
thorax 2.86837 -0.241457 1.81783
lowerneck -12.8785 -1.10369 -2.51027
upperneck 19.7735 -1.23048 1.17299
head 8.28523 -0.650909 0.676599
rclavicle 3.45388e-015 5.76476e-015
rhumerus -23.2354 -16.9725 -83.0287
rradius 23.2205
rwrist 34.8932
rhand -20.2095 -27.0283
rfingers 7.12502
rthumb 6.13753 -56.9193
lclavicle 3.45388e-015 5.76476e-015
lhumerus -20.5476 9.61228 87.6059
lradius 12.5754
lwrist -7.22552
lhand -25.9109 -6.31461
lfingers 7.12502
lthumb 0.631829 23.6642
rfemur -13.0023 -1.66111 20.2295
rtibia 19.3876
rfoot -10.7013 -0.170494
rtoes 17.8123
lfemur -11.5758 6.61108 -17.3928
ltibia 18.2688
lfoot -9.58034 2.75353
ltoes -2.89975
521
root 0.786192 17.7416 6.47626 5.1556 0.808738 -2.01463
lowerback -2.20233 -0.304569 -0.150683
upperback 1.59644 -0.446609 1.7055
thorax 2.88929 -0.243991 1.81657
lowerneck -12.9026 -1.12977 -2.52209
upperneck 19.6476 -1.26342 1.17674
head 8.24811 -0.666521 0.675961
rclavicle -8.77137e-015 1.98785e-016
rhumerus -23.269 -17.338 -82.8813
rradius 22.9793
rwrist 35.2537
rhand -20.1814 -27.034
rfingers 7.12502
rthumb 6.16468 -56.9243
lclavicle -8.77137e-015 1.98785e-016
lhumerus -20.6287 9.77749 87.4803
lradius 12.4932
lwrist -7.41862
lhand -25.9852 -6.46566
lfingers 7.12502
lthumb 0.559999 23.5134
rfemur -13.0072 -1.67328 20.2136
rtibia 19.3972
rfoot -10.701 -0.126271
rtoes 17.8371
lfemur -11.5576 6.62313 -17.4084
ltibia 18.2567
lfoot -9.57792 2.77089
ltoes -2.90785
522
root 0.787447 17.7416 6.47599 5.14993 0.777851 -2.00617
lowerback -2.21646 -0.308257 -0.153849
upperback 1.60245 -0.45149 1.7004
thorax 2.90359 -0.246529 1.81282
lowerneck -12.9099 -1.15622 -2.5339
upperneck 19.5228 -1.29694 1.17886
head 8.20839 -0.682637 0.674803
rclavicle -1.09332e-015 -1.21259e-014
rhumerus -23.3105 -17.7119 -82.7278
rradius 22.7404
rwrist 35.6247
rhand -20.1462 -27.0417
rfingers 7.12502
rthumb 6.1987 -56.9311
lclavicle -1.09332e-015 -1.21259e-014
lhumerus -20.7111 9.95261 87.3507
lradius 12.4049
lwrist -7.62993
lhand -26.0635 -6.62772
lfingers 7.12502
lthumb 0.484409 23.3515
rfemur -13.0095 -1.68898 20.1992
rtibia 19.4044
rfoot -10.701 -0.0806331
rtoes 17.8549
lfemur -11.5402 6.63292 -17.4219
ltibia 18.2471
lfoot -9.57542 2.78718
ltoes -2.90768
523
root 0.788665 17.7415 6.47561 5.14476 0.749113 -2.00039
lowerback -2.22982 -0.311618 -0.152657
upperback 1.60715 -0.45606 1.69533
thorax 2.91605 -0.248808 1.80667
lowerneck -12.9099 -1.18354 -2.54367
upperneck 19.4027 -1.33182 1.17869
head 8.16899 -0.699522 0.672445
rclavicle 6.43565e-015 4.96962e-015
rhumerus -23.356 -18.0872 -82.5732
rradius 22.5108
rwrist 35.9915
rhand -20.1062 -27.0574
rfingers 7.12502
rthumb 6.23732 -56.9456
lclavicle 6.43565e-015 4.96962e-015
lhumerus -20.791 10.1285 87.2205
lradius 12.3206
lwrist -7.84358
lhand -26.1276 -6.75007
lfingers 7.12502
lthumb 0.422494 23.2293
rfemur -13.0121 -1.70554 20.1881
rtibia 19.4105
rfoot -10.7009 -0.0361704
rtoes 17.8701
lfemur -11.5254 6.64095 -17.4323
ltibia 18.2386
lfoot -9.57272 2.80184
ltoes -2.89654
524
root 0.789842 17.7414 6.47518 5.13861 0.720612 -1.99568
lowerback -2.23642 -0.314013 -0.149092
upperback 1.60429 -0.459273 1.69063
thorax 2.91685 -0.250278 1.79964
lowerneck -12.8948 -1.20861 -2.55674
upperneck 19.2968 -1.36377 1.18051
head 8.13161 -0.715167 0.671725
rclavicle 1.14301e-015 -4.57205e-015
rhumerus -23.4179 -18.4617 -82.4114
rradius 22.289
rwrist 36.353
rhand -20.082 -27.0535
rfingers 7.12502
rthumb 6.26066 -56.941
lclavicle 1.14301e-015 -4.57205e-015
lhumerus -20.8787 10.2983 87.0917
lradius 12.2406
lwrist -8.04968
lhand -26.1811 -6.85936
lfingers 7.12502
lthumb 0.370802 23.1201
rfemur -13.0136 -1.72007 20.1782
rtibia 19.4158
rfoot -10.7012 0.00650976
rtoes 17.882
lfemur -11.5108 6.64648 -17.4409
ltibia 18.2316
lfoot -9.56856 2.81749
ltoes -2.87744
525
root 0.791021 17.7412 6.47479 5.13251 0.692209 -1.98891
lowerback -2.23741 -0.316022 -0.147086
upperback 1.59139 -0.461754 1.68688
thorax 2.90414 -0.251319 1.79453
lowerneck -12.8655 -1.2308 -2.57089
upperneck 19.2125 -1.39103 1.17754
head 8.09882 -0.72927 0.670203
rclavicle 2.55935e-015 -1.05356e-014
rhumerus -23.501 -18.829 -82.2401
rradius 22.0789
rwrist 36.7096
rhand -20.0612 -27.0422
rfingers 7.12502
rthumb 6.28074 -56.9291
lclavicle 2.55935e-015 -1.05356e-014
lhumerus -20.9824 10.4683 86.9641
lradius 12.1719
lwrist -8.24856
lhand -26.2111 -6.92024
lfingers 7.12502
lthumb 0.341812 23.0592
rfemur -13.0158 -1.73502 20.1659
rtibia 19.4224
rfoot -10.7032 0.0492946
rtoes 17.893
lfemur -11.4961 6.65154 -17.452
ltibia 18.2241
lfoot -9.56422 2.83402
ltoes -2.86503
526
root 0.792136 17.7411 6.47433 5.12506 0.664738 -1.9813
lowerback -2.23211 -0.31851 -0.145721
upperback 1.57252 -0.46474 1.68396
thorax 2.88176 -0.252564 1.79063
lowerneck -12.8383 -1.24763 -2.58212
upperneck 19.1537 -1.41056 1.16942
head 8.07475 -0.740083 0.667342
rclavicle -1.46604e-015 -6.16232e-015
rhumerus -23.6003 -19.1564 -82.0717
rradius 21.8927
rwrist 37.0253
rhand -20.0453 -27.0287
rfingers 7.12502
rthumb 6.29604 -56.9152
lclavicle -1.46604e-015 -6.16232e-015
lhumerus -21.0919 10.6346 86.8386
lradius 12.1123
lwrist -8.43186
lhand -26.2139 -6.91314
lfingers 7.12502
lthumb 0.339145 23.0663
rfemur -13.0173 -1.74822 20.153
rtibia 19.4306
rfoot -10.7073 0.088173
rtoes 17.8972
lfemur -11.4798 6.65833 -17.4638
ltibia 18.2157
lfoot -9.56075 2.84899
ltoes -2.86046
